<mxfile host="Electron" modified="2023-07-19T21:03:29.098Z" agent="Mozilla/5.0 (Windows NT 10.0; Win64; x64) AppleWebKit/537.36 (KHTML, like Gecko) draw.io/21.6.1 Chrome/112.0.5615.204 Electron/24.6.1 Safari/537.36" etag="FGwe01R6bRf7cRVtorv6" version="21.6.1" type="device">
  <diagram name="Страница 1" id="9AdSGZ-wU5dIfNWMVngr">
    <mxGraphModel dx="952" dy="636" grid="1" gridSize="10" guides="1" tooltips="1" connect="1" arrows="1" fold="1" page="1" pageScale="1" pageWidth="827" pageHeight="1169" math="0" shadow="0">
      <root>
        <mxCell id="0" />
        <mxCell id="1" parent="0" />
        <mxCell id="fwMDCeDDaVyuJN_M8xQI-238" value="" style="edgeStyle=orthogonalEdgeStyle;rounded=0;orthogonalLoop=1;jettySize=auto;html=1;" parent="1" source="y0_Ly3QX1UwcSKQh8jFW-9" target="fwMDCeDDaVyuJN_M8xQI-43" edge="1">
          <mxGeometry relative="1" as="geometry" />
        </mxCell>
        <mxCell id="fwMDCeDDaVyuJN_M8xQI-2" value="start" style="ellipse;whiteSpace=wrap;html=1;labelBackgroundColor=none;" parent="1" vertex="1">
          <mxGeometry x="266" y="10" width="120" height="80" as="geometry" />
        </mxCell>
        <mxCell id="fwMDCeDDaVyuJN_M8xQI-200" value="" style="edgeStyle=orthogonalEdgeStyle;rounded=0;orthogonalLoop=1;jettySize=auto;html=1;" parent="1" source="fwMDCeDDaVyuJN_M8xQI-43" edge="1">
          <mxGeometry relative="1" as="geometry">
            <mxPoint x="326" y="240" as="targetPoint" />
          </mxGeometry>
        </mxCell>
        <mxCell id="fwMDCeDDaVyuJN_M8xQI-43" value="A = num" style="shape=parallelogram;perimeter=parallelogramPerimeter;whiteSpace=wrap;html=1;fixedSize=1;labelBackgroundColor=none;" parent="1" vertex="1">
          <mxGeometry x="266" y="170" width="120" height="40" as="geometry" />
        </mxCell>
        <mxCell id="fwMDCeDDaVyuJN_M8xQI-224" value="" style="edgeStyle=orthogonalEdgeStyle;rounded=0;orthogonalLoop=1;jettySize=auto;html=1;" parent="1" source="fwMDCeDDaVyuJN_M8xQI-222" target="fwMDCeDDaVyuJN_M8xQI-223" edge="1">
          <mxGeometry relative="1" as="geometry" />
        </mxCell>
        <mxCell id="fwMDCeDDaVyuJN_M8xQI-222" value="i = A" style="rounded=0;whiteSpace=wrap;html=1;" parent="1" vertex="1">
          <mxGeometry x="266" y="400" width="120" height="30" as="geometry" />
        </mxCell>
        <mxCell id="fwMDCeDDaVyuJN_M8xQI-226" value="" style="edgeStyle=orthogonalEdgeStyle;rounded=0;orthogonalLoop=1;jettySize=auto;html=1;" parent="1" source="fwMDCeDDaVyuJN_M8xQI-223" target="fwMDCeDDaVyuJN_M8xQI-225" edge="1">
          <mxGeometry relative="1" as="geometry" />
        </mxCell>
        <mxCell id="fwMDCeDDaVyuJN_M8xQI-229" value="" style="edgeStyle=orthogonalEdgeStyle;rounded=0;orthogonalLoop=1;jettySize=auto;html=1;" parent="1" source="fwMDCeDDaVyuJN_M8xQI-223" target="fwMDCeDDaVyuJN_M8xQI-228" edge="1">
          <mxGeometry relative="1" as="geometry" />
        </mxCell>
        <mxCell id="fwMDCeDDaVyuJN_M8xQI-223" value="i&amp;lt;=B" style="rhombus;whiteSpace=wrap;html=1;rounded=0;" parent="1" vertex="1">
          <mxGeometry x="253" y="470" width="146" height="80" as="geometry" />
        </mxCell>
        <mxCell id="fwMDCeDDaVyuJN_M8xQI-225" value="end" style="ellipse;whiteSpace=wrap;html=1;rounded=0;" parent="1" vertex="1">
          <mxGeometry x="480" y="580" width="80" height="80" as="geometry" />
        </mxCell>
        <mxCell id="fwMDCeDDaVyuJN_M8xQI-227" value="конец цикла" style="text;html=1;strokeColor=none;fillColor=none;align=center;verticalAlign=middle;whiteSpace=wrap;rounded=0;" parent="1" vertex="1">
          <mxGeometry x="414" y="470" width="60" height="30" as="geometry" />
        </mxCell>
        <mxCell id="fwMDCeDDaVyuJN_M8xQI-234" value="" style="edgeStyle=orthogonalEdgeStyle;rounded=0;orthogonalLoop=1;jettySize=auto;html=1;" parent="1" source="fwMDCeDDaVyuJN_M8xQI-228" edge="1">
          <mxGeometry relative="1" as="geometry">
            <mxPoint x="326" y="700" as="targetPoint" />
          </mxGeometry>
        </mxCell>
        <mxCell id="fwMDCeDDaVyuJN_M8xQI-228" value="int cube= i * i * i" style="whiteSpace=wrap;html=1;rounded=0;" parent="1" vertex="1">
          <mxGeometry x="266" y="580" width="120" height="60" as="geometry" />
        </mxCell>
        <mxCell id="fwMDCeDDaVyuJN_M8xQI-232" style="edgeStyle=orthogonalEdgeStyle;rounded=0;orthogonalLoop=1;jettySize=auto;html=1;entryX=0;entryY=0.5;entryDx=0;entryDy=0;" parent="1" source="fwMDCeDDaVyuJN_M8xQI-230" target="fwMDCeDDaVyuJN_M8xQI-223" edge="1">
          <mxGeometry relative="1" as="geometry">
            <Array as="points">
              <mxPoint x="40" y="980" />
              <mxPoint x="40" y="510" />
            </Array>
          </mxGeometry>
        </mxCell>
        <mxCell id="fwMDCeDDaVyuJN_M8xQI-230" value="i++" style="whiteSpace=wrap;html=1;rounded=0;" parent="1" vertex="1">
          <mxGeometry x="266" y="960" width="120" height="60" as="geometry" />
        </mxCell>
        <mxCell id="fwMDCeDDaVyuJN_M8xQI-236" value="выполнение цикла" style="text;html=1;strokeColor=none;fillColor=none;align=center;verticalAlign=middle;whiteSpace=wrap;rounded=0;" parent="1" vertex="1">
          <mxGeometry x="360" y="540" width="60" height="30" as="geometry" />
        </mxCell>
        <mxCell id="y0_Ly3QX1UwcSKQh8jFW-4" value="" style="edgeStyle=orthogonalEdgeStyle;rounded=0;orthogonalLoop=1;jettySize=auto;html=1;" edge="1" parent="1" source="y0_Ly3QX1UwcSKQh8jFW-2" target="y0_Ly3QX1UwcSKQh8jFW-3">
          <mxGeometry relative="1" as="geometry" />
        </mxCell>
        <mxCell id="y0_Ly3QX1UwcSKQh8jFW-7" style="edgeStyle=orthogonalEdgeStyle;rounded=0;orthogonalLoop=1;jettySize=auto;html=1;entryX=0.083;entryY=0.072;entryDx=0;entryDy=0;entryPerimeter=0;" edge="1" parent="1" source="y0_Ly3QX1UwcSKQh8jFW-2" target="fwMDCeDDaVyuJN_M8xQI-230">
          <mxGeometry relative="1" as="geometry">
            <Array as="points">
              <mxPoint x="190" y="740" />
              <mxPoint x="190" y="964" />
            </Array>
          </mxGeometry>
        </mxCell>
        <mxCell id="y0_Ly3QX1UwcSKQh8jFW-2" value="if cube%2 ==0" style="rhombus;whiteSpace=wrap;html=1;" vertex="1" parent="1">
          <mxGeometry x="255" y="700" width="144" height="80" as="geometry" />
        </mxCell>
        <mxCell id="y0_Ly3QX1UwcSKQh8jFW-6" style="edgeStyle=orthogonalEdgeStyle;rounded=0;orthogonalLoop=1;jettySize=auto;html=1;entryX=0.5;entryY=0;entryDx=0;entryDy=0;" edge="1" parent="1" source="y0_Ly3QX1UwcSKQh8jFW-3" target="fwMDCeDDaVyuJN_M8xQI-230">
          <mxGeometry relative="1" as="geometry">
            <Array as="points">
              <mxPoint x="480" y="910" />
              <mxPoint x="326" y="910" />
            </Array>
          </mxGeometry>
        </mxCell>
        <mxCell id="y0_Ly3QX1UwcSKQh8jFW-3" value="print cube" style="shape=document;whiteSpace=wrap;html=1;boundedLbl=1;" vertex="1" parent="1">
          <mxGeometry x="420" y="790" width="120" height="80" as="geometry" />
        </mxCell>
        <mxCell id="y0_Ly3QX1UwcSKQh8jFW-5" value="false" style="text;html=1;strokeColor=none;fillColor=none;align=center;verticalAlign=middle;whiteSpace=wrap;rounded=0;" vertex="1" parent="1">
          <mxGeometry x="195" y="700" width="60" height="30" as="geometry" />
        </mxCell>
        <mxCell id="y0_Ly3QX1UwcSKQh8jFW-8" value="true" style="text;html=1;strokeColor=none;fillColor=none;align=center;verticalAlign=middle;whiteSpace=wrap;rounded=0;" vertex="1" parent="1">
          <mxGeometry x="386" y="700" width="60" height="30" as="geometry" />
        </mxCell>
        <mxCell id="y0_Ly3QX1UwcSKQh8jFW-10" value="" style="edgeStyle=orthogonalEdgeStyle;rounded=0;orthogonalLoop=1;jettySize=auto;html=1;" edge="1" parent="1" source="fwMDCeDDaVyuJN_M8xQI-2" target="y0_Ly3QX1UwcSKQh8jFW-9">
          <mxGeometry relative="1" as="geometry">
            <mxPoint x="326" y="90" as="sourcePoint" />
            <mxPoint x="326" y="170" as="targetPoint" />
          </mxGeometry>
        </mxCell>
        <mxCell id="y0_Ly3QX1UwcSKQh8jFW-9" value="int A" style="whiteSpace=wrap;html=1;labelBackgroundColor=none;" vertex="1" parent="1">
          <mxGeometry x="266" y="120" width="120" height="23" as="geometry" />
        </mxCell>
        <mxCell id="y0_Ly3QX1UwcSKQh8jFW-13" value="" style="edgeStyle=orthogonalEdgeStyle;rounded=0;orthogonalLoop=1;jettySize=auto;html=1;" edge="1" parent="1" source="y0_Ly3QX1UwcSKQh8jFW-11" target="y0_Ly3QX1UwcSKQh8jFW-12">
          <mxGeometry relative="1" as="geometry" />
        </mxCell>
        <mxCell id="y0_Ly3QX1UwcSKQh8jFW-11" value="int B" style="rounded=0;whiteSpace=wrap;html=1;" vertex="1" parent="1">
          <mxGeometry x="270" y="240" width="120" height="20" as="geometry" />
        </mxCell>
        <mxCell id="y0_Ly3QX1UwcSKQh8jFW-14" value="" style="edgeStyle=orthogonalEdgeStyle;rounded=0;orthogonalLoop=1;jettySize=auto;html=1;" edge="1" parent="1" source="y0_Ly3QX1UwcSKQh8jFW-12" target="fwMDCeDDaVyuJN_M8xQI-222">
          <mxGeometry relative="1" as="geometry">
            <Array as="points">
              <mxPoint x="326" y="350" />
              <mxPoint x="326" y="350" />
            </Array>
          </mxGeometry>
        </mxCell>
        <mxCell id="y0_Ly3QX1UwcSKQh8jFW-12" value="B = num" style="shape=parallelogram;perimeter=parallelogramPerimeter;whiteSpace=wrap;html=1;fixedSize=1;rounded=0;" vertex="1" parent="1">
          <mxGeometry x="270" y="300" width="120" height="40" as="geometry" />
        </mxCell>
      </root>
    </mxGraphModel>
  </diagram>
</mxfile>
